<svg width="22" height="18" viewBox="0 0 22 18" fill="none" xmlns="http://www.w3.org/2000/svg">
<path d="M21 6.33333H0.999999H21ZM21 11.6667H0.999999H21ZM11 6.33333V17V6.33333ZM18.7778 17H3.22222C2.63285 17 2.06762 16.719 1.65087 16.219C1.23413 15.7189 0.999999 15.0406 0.999999 14.3333V3.66667C0.999999 2.95942 1.23413 2.28115 1.65087 1.78105C2.06762 1.28095 2.63285 1 3.22222 1H18.7778C19.3671 1 19.9324 1.28095 20.3491 1.78105C20.7659 2.28115 21 2.95942 21 3.66667V14.3333C21 15.0406 20.7659 15.7189 20.3491 16.219C19.9324 16.719 19.3671 17 18.7778 17Z" stroke="#3C3C3C" stroke-linecap="round" stroke-linejoin="round"/>
</svg>
