<svg width="24" height="24" viewBox="0 0 24 24" fill="none" xmlns="http://www.w3.org/2000/svg">
<path fill-rule="evenodd" clip-rule="evenodd" d="M17.5263 9.01745C17.899 8.66349 18.3636 7.783 17.6731 7.39117C16.9826 6.99934 16.877 6.58429 16.929 6.1009C16.981 5.61751 17.8226 4.87385 18.7432 5.55423C19.6637 6.23461 20.4799 7.34301 17.957 9.49284" fill="black"/>
<path d="M21 3H3.88104C3.69139 3.06494 3.51948 3.1714 3.37848 3.31123C3.23748 3.45105 3.13113 3.62053 3.06758 3.80668C3.00402 3.99284 2.98495 4.19072 3.01183 4.38518C3.0387 4.57965 3.1108 4.76552 3.22262 4.92857L9.80683 12V17.1429L15.0742 21V12L18.6704 8.13766" stroke="black" stroke-linecap="round" stroke-linejoin="round"/>
<path d="M3.9 3H21" stroke="#FF9600" stroke-linecap="round"/>
</svg>
