<svg width="33" height="24" viewBox="0 0 33 24" fill="none" xmlns="http://www.w3.org/2000/svg">
<path fill-rule="evenodd" clip-rule="evenodd" d="M14.8965 5.11189C25.4376 5.18039 31.3513 6.75378 32.6377 9.83203C32.6377 9.83203 32.6377 8.25865 32.6377 5.11189C32.3538 2.6185 27.5996 0.986374 18.3751 0.215495C18.3751 0.215495 17.2156 0.143696 14.8965 9.82285e-05V5.11189Z" fill="#FFAE00"/>
<path fill-rule="evenodd" clip-rule="evenodd" d="M14.8965 10.226C25.4376 10.1575 31.3513 8.58412 32.6377 5.50586C32.6377 5.50586 32.6377 7.07924 32.6377 10.226C32.3538 12.7194 27.5996 14.3515 18.3751 15.1224C18.3751 15.1224 17.2156 15.1942 14.8965 15.3378V10.226ZM14.8965 18.026C25.4376 17.9575 31.3513 16.3841 32.6377 13.3059C32.6377 13.3059 32.6377 14.8792 32.6377 18.026C32.3538 20.5194 27.5996 22.1515 18.3751 22.9224C18.3751 22.9224 17.2156 22.9942 14.8965 23.1378V18.026Z" fill="#336FE3"/>
<path fill-rule="evenodd" clip-rule="evenodd" d="M12.028 19.8289C12.936 19.8289 13.6721 20.5597 13.6721 21.461C13.6721 22.3624 12.936 23.0931 12.028 23.0931C11.12 23.0931 10.3839 22.3624 10.3839 21.461C10.3839 20.5597 11.12 19.8289 12.028 19.8289ZM7.70743 19.3848C8.50987 19.3848 9.16037 19.9926 9.16037 20.7423C9.16037 21.492 8.50987 22.0997 7.70743 22.0997C6.90499 22.0997 6.25449 21.492 6.25449 20.7423C6.25449 19.9926 6.90499 19.3848 7.70743 19.3848ZM3.90604 18.9688C4.52731 18.9688 5.03096 19.4688 5.03096 20.0855C5.03096 20.7022 4.52731 21.2022 3.90604 21.2022C3.28476 21.2022 2.78111 20.7022 2.78111 20.0855C2.78111 19.4688 3.28476 18.9688 3.90604 18.9688ZM0.778793 18.2816C1.20891 18.2816 1.55759 18.6278 1.55759 19.0547C1.55759 19.4817 1.20891 19.8278 0.778793 19.8278C0.348677 19.8278 0 19.4817 0 19.0547C0 18.6278 0.348677 18.2816 0.778793 18.2816ZM12.028 15.1899C12.936 15.1899 13.6721 15.9206 13.6721 16.8219C13.6721 17.7233 12.936 18.454 12.028 18.454C11.12 18.454 10.3839 17.7233 10.3839 16.8219C10.3839 15.9206 11.12 15.1899 12.028 15.1899ZM7.70743 15.4821C8.50987 15.4821 9.16037 16.0899 9.16037 16.8396C9.16037 17.5893 8.50987 18.197 7.70743 18.197C6.90499 18.197 6.25449 17.5893 6.25449 16.8396C6.25449 16.0899 6.90499 15.4821 7.70743 15.4821ZM3.90604 15.7047C4.52731 15.7047 5.03096 16.2046 5.03096 16.8214C5.03096 17.4381 4.52731 17.9381 3.90604 17.9381C3.28476 17.9381 2.78111 17.4381 2.78111 16.8214C2.78111 16.2046 3.28476 15.7047 3.90604 15.7047ZM0.778793 16.0483C1.20891 16.0483 1.55759 16.3944 1.55759 16.8214C1.55759 17.2483 1.20891 17.5945 0.778793 17.5945C0.348677 17.5945 0 17.2483 0 16.8214C0 16.3944 0.348677 16.0483 0.778793 16.0483ZM0.778793 13.8149C1.20891 13.8149 1.55759 14.161 1.55759 14.588C1.55759 15.015 1.20891 15.3611 0.778793 15.3611C0.348677 15.3611 0 15.015 0 14.588C0 14.161 0.348677 13.8149 0.778793 13.8149ZM3.90604 12.4405C4.52731 12.4405 5.03096 12.9405 5.03096 13.5572C5.03096 14.174 4.52731 14.6739 3.90604 14.6739C3.28476 14.6739 2.78111 14.174 2.78111 13.5572C2.78111 12.9405 3.28476 12.4405 3.90604 12.4405ZM7.70743 11.4098C8.50987 11.4098 9.16037 12.0175 9.16037 12.7672C9.16037 13.5169 8.50987 14.1247 7.70743 14.1247C6.90499 14.1247 6.25449 13.5169 6.25449 12.7672C6.25449 12.0175 6.90499 11.4098 7.70743 11.4098ZM12.028 10.5508C12.936 10.5508 13.6721 11.2815 13.6721 12.1829C13.6721 13.0842 12.936 13.8149 12.028 13.8149C11.12 13.8149 10.3839 13.0842 10.3839 12.1829C10.3839 11.2815 11.12 10.5508 12.028 10.5508Z" fill="#336FE3"/>
</svg>
