<svg width="22" height="22" viewBox="0 0 22 22" fill="none" xmlns="http://www.w3.org/2000/svg">
<path d="M6.02056 13.0069H16.377C16.7915 13.0069 17.1956 12.8749 17.5319 12.6297C17.8682 12.3845 18.1197 12.0384 18.2508 11.6406L19.8971 6.64565C20.3234 5.35181 19.3716 4.01572 18.0236 4.01572H7.08781M6.02056 13.0069L4.75108 4.01572L4.71108 3.7331C4.64384 3.25696 4.40907 2.82133 4.04989 2.5062C3.6907 2.19107 3.23121 2.01758 2.75576 2.01758H2M6.02056 13.0069L6.20157 14.2885C6.26882 14.7646 6.50359 15.2002 6.86277 15.5154C7.22195 15.8305 7.68145 16.004 8.1569 16.004H16.813M16.813 16.004C16.4224 16.004 16.0405 16.1212 15.7157 16.3408C15.3908 16.5603 15.1377 16.8724 14.9882 17.2375C14.8387 17.6027 14.7996 18.0045 14.8758 18.3921C14.9521 18.7797 15.1402 19.1357 15.4165 19.4151C15.6928 19.6946 16.0447 19.8849 16.4279 19.9619C16.8111 20.039 17.2082 19.9994 17.5691 19.8481C17.93 19.6968 18.2385 19.4407 18.4555 19.112C18.6725 18.7834 18.7883 18.397 18.7882 18.0018C18.7882 17.7394 18.7371 17.4796 18.6379 17.2372C18.5386 16.9948 18.3931 16.7746 18.2097 16.589C18.0263 16.4035 17.8085 16.2564 17.5689 16.156C17.3293 16.0556 17.0724 16.004 16.813 16.004ZM10.8878 18.0018C10.8879 18.397 10.7721 18.7834 10.5551 19.112C10.3381 19.4407 10.0296 19.6968 9.66873 19.8481C9.30782 19.9994 8.91067 20.039 8.5275 19.9619C8.14434 19.8849 7.79237 19.6946 7.5161 19.4151C7.23984 19.1357 7.0517 18.7797 6.97546 18.3921C6.89922 18.0045 6.93832 17.6027 7.08781 17.2375C7.23729 16.8724 7.49046 16.5603 7.81528 16.3408C8.1401 16.1212 8.52199 16.004 8.91266 16.004C9.43645 16.004 9.9388 16.2145 10.3092 16.5891C10.6796 16.9638 10.8877 17.4719 10.8878 18.0018Z" stroke="#191F2D" stroke-linecap="round" stroke-linejoin="round"/>
</svg>
