<svg width="22" height="22" viewBox="0 0 22 22" fill="none" xmlns="http://www.w3.org/2000/svg">
<path d="M7.19336 8.04142C7.19336 7.63054 7.44468 7.26148 7.82699 7.11095L14.3614 4.53801C15.0176 4.27966 15.7278 4.76332 15.7278 5.46848V14.5696C15.7278 15.2496 15.0637 15.7313 14.4173 15.5201L7.88284 13.3855C7.47158 13.2512 7.19336 12.8676 7.19336 12.435V8.04142Z" stroke="#191F2D" stroke-linejoin="round"/>
<path fill-rule="evenodd" clip-rule="evenodd" d="M2 8.83984C2 8.01142 2.67157 7.33984 3.5 7.33984H5.34482C5.62096 7.33984 5.84482 7.5637 5.84482 7.83984C5.84482 8.11599 5.62096 8.33984 5.34482 8.33984H3.5C3.22386 8.33984 3 8.5637 3 8.83984V11.3204C3 11.5966 3.22386 11.8204 3.5 11.8204H5.34482C5.62096 11.8204 5.84482 12.0443 5.84482 12.3204C5.84482 12.5966 5.62096 12.8204 5.34482 12.8204H3.5C2.67157 12.8204 2 12.1489 2 11.3204V8.83984Z" fill="#191F2D"/>
<path fill-rule="evenodd" clip-rule="evenodd" d="M5.20703 17.1602C4.3786 17.1602 3.70703 16.4886 3.70703 15.6602L3.70703 13.8153C3.70703 13.5392 3.93089 13.3153 4.20703 13.3153C4.48317 13.3153 4.70703 13.5392 4.70703 13.8153L4.70703 15.6602C4.70703 15.9363 4.93089 16.1602 5.20703 16.1602L5.41286 16.1602C5.689 16.1602 5.91286 15.9363 5.91286 15.6602L5.91286 13.8153C5.91286 13.5392 6.13672 13.3153 6.41286 13.3153C6.689 13.3153 6.91286 13.5392 6.91286 13.8153L6.91286 15.6602C6.91286 16.4886 6.24128 17.1602 5.41286 17.1602L5.20703 17.1602Z" fill="#191F2D"/>
<path d="M17.4355 9.97266H19.9959" stroke="#191F2D" stroke-linecap="round"/>
<path d="M17.6074 8.05469L19.8247 6.77452" stroke="#191F2D" stroke-linecap="round"/>
<path d="M17.6074 11.8945L19.8247 13.1747" stroke="#191F2D" stroke-linecap="round"/>
</svg>
