<svg width="24" height="24" viewBox="0 0 24 24" fill="none" xmlns="http://www.w3.org/2000/svg">
<path d="M17.7924 8.31697C17.7924 4.8282 14.9642 2 11.4755 2C7.98669 2 5.15848 4.8282 5.15848 8.31697C5.15848 15.6868 2 17.7924 2 17.7924H20.9509V15.6868" stroke="white" stroke-linecap="round" stroke-linejoin="round"/>
<path d="M13.2968 20.9512C12.9201 21.6006 12.2262 22.0003 11.4754 22.0003C10.7247 22.0003 10.0308 21.6006 9.65405 20.9512" stroke="white" stroke-linecap="round"/>
<path fill-rule="evenodd" clip-rule="evenodd" d="M20.4523 16.8514C20.4575 16.3257 20.4895 15.3098 19.7147 15.5174C18.9398 15.725 18.562 15.497 18.2457 15.1062C17.9293 14.7155 17.9817 13.5692 19.1301 13.408C20.2785 13.2468 21.6657 13.4733 21.4507 16.8514" fill="white"/>
</svg>
