<svg width="24" height="24" viewBox="0 0 24 24" fill="none" xmlns="http://www.w3.org/2000/svg">
<path d="M12 21.091C17.0208 21.091 21.0909 17.0209 21.0909 12.0001C21.0909 6.97932 17.0208 2.90918 12 2.90918C6.97923 2.90918 2.90909 6.97932 2.90909 12.0001C2.90909 17.0209 6.97923 21.091 12 21.091Z" stroke="white" stroke-linecap="round" stroke-linejoin="round"/>
<path d="M9.35455 9.27245C9.56828 8.66487 9.99015 8.15254 10.5454 7.8262C11.1007 7.49986 11.7535 7.38057 12.3884 7.48946C13.0232 7.59834 13.5989 7.92838 14.0137 8.42111C14.4285 8.91384 14.6555 9.53747 14.6546 10.1815C14.6546 11.9997 11.9273 12.9088 11.9273 12.9088" stroke="white" stroke-linecap="round" stroke-linejoin="round"/>
<path d="M12 16.5449H12.0082" stroke="white" stroke-linecap="round" stroke-linejoin="round"/>
</svg>
